<?xml version="1.0" encoding="UTF-8"?>
<!DOCTYPE svg PUBLIC "-//W3C//DTD SVG 1.0//EN" "http://www.w3.org/TR/2001/REC-SVG-20010904/DTD/svg10.dtd">
<!-- Creator: CorelDRAW 2020 (64-Bit) -->
<?xml-stylesheet href="Carpepato.css" type="text/css"?>
<svg xmlns="http://www.w3.org/2000/svg" xml:space="preserve" width="273.64mm" height="273.64mm" version="1.0" style="shape-rendering:geometricPrecision; text-rendering:geometricPrecision; image-rendering:optimizeQuality; fill-rule:evenodd; clip-rule:evenodd"
viewBox="0 0 7531.75 7531.74"
 xmlns:xlink="http://www.w3.org/1999/xlink"
 xmlns:xodm="http://www.corel.com/coreldraw/odm/2003">
 <g id="Capa_x0020_1">
  <metadata id="CorelCorpID_0Corel-Layer"/>
  <path class="fil0" d="M1210.28 2873.2c-686.83,0 -914.01,209.04 -1022.68,960.05 -88.42,611.05 -69.82,1531.4 -185.09,3039.39 -32.63,426.9 259.08,658.96 518.33,658.96l4722.11 0c423.9,0 679.37,13.79 932.72,-238.5 122.87,-122.35 239.11,-261.1 336.28,-419.18l612.32 -996.2c289.85,-471.56 200.66,-498.82 -103.19,-636.57 127.46,-220.81 510.67,-798.04 510.67,-1068.93 0,-102.87 -55.43,-140.97 -204.42,-138.96l-611.53 8.25 312.73 -859.4c208.07,-571.79 -6.28,-544.78 -310.54,-489.69 -644.03,116.6 -982.55,180.78 -1697.64,180.78l-1465.1 0c-176.35,0 -180.91,-598.33 -118.96,-831.74 207.71,-782.51 -112.87,-1388.11 -893.05,-1664.64 374.95,-204.48 137.43,-398.79 -117.12,-80.84 108.88,-193.41 100.77,-279.7 56.04,-293.87 -62.57,-19.82 -196.82,101.53 -182.61,268.23 -263.99,-179.09 -421.31,-61.7 -120.04,102.8 -436.37,51.23 -954.1,407.73 -1031.53,801.38 -62.39,317.23 43.6,499.31 -286.22,591.59 -294.38,82.35 -391.14,23.76 -583.07,1.18 -53.81,-6.33 -150.21,7.22 -138.51,119.41 27.4,262.77 295.65,434.2 524.15,516.14 92.75,33.26 129.69,33.4 218.54,33.04 108.18,-0.44 66.9,-14.48 311.16,-14.48 329.14,11.95 287.95,451.81 16.23,451.81zm1065.69 1168.31l3828.38 0 141.99 -390.17c57.78,-158.78 72.11,-195.21 -138.68,-195.09l-4172.15 2.44c-954.99,0.55 -1118.35,228.58 -1224.36,1235.31l-220.38 2092.73c-42.26,401.32 372.78,458.83 452.27,109.19l497.08 -2186.26c165.48,-727.82 485.57,-668.15 835.84,-668.15z"/>
 </g>
</svg>