<svg width="141" height="141" viewBox="0 0 141 141" fill="none" xmlns="http://www.w3.org/2000/svg">
<g clip-path="url(#clip0_110_1482)">
<path d="M46.9995 55.5183C46.9995 75.9528 49.4995 99 76.9995 123C91.9881 136.081 117.499 118.5 120.499 108C123.499 97.5 130.999 66.5 127.999 49.5C124.999 32.5 112.04 26.3357 97.9995 20.9884C97.9995 20.9884 96.9995 20.5183 97.4995 19.0183C97.9995 17.5183 99.9995 14.0183 99.4995 13.5183C98.9995 13.0183 97.1436 14.2588 95.4995 16.5183C94.3817 18.0546 94.3177 19.0356 93.7106 19.6427L92.4995 19.3621C91.9995 18.5183 91.7573 17.662 91.9995 15.5183C92.3134 12.7407 93.2817 10.8005 92.9995 10.5183C92.7152 10.234 90.2022 11.7303 88.9995 14.5183C88.0873 16.6328 87.9995 18.0183 87.9995 18.7126H84.9995C84.9995 18.7126 84.461 16.841 84.9995 14.0183C85.5952 10.8959 86.7621 8.2809 86.4995 8.0183C86.2219 7.74067 83.0937 10.6627 80.9995 14.0183C79.3221 16.7061 79.1666 18.3511 78.4995 19.0182C61.7705 22.736 46.9995 32.5 46.9995 55.5183Z" fill="#F9F9F9" stroke="#373737" stroke-width="2"/>
<path d="M88.0731 74.0184C83.5771 68.5184 31.5697 94.0184 34.5697 100.018C37.5697 106.018 81.5691 97.0184 87.0691 95.5184C92.5691 94.0184 92.569 79.5184 88.0731 74.0184Z" fill="#FFE482" stroke="#373737"/>
<path d="M84.1398 76.2953C80.346 71.7138 36.4611 92.9554 38.9926 97.9535C41.524 102.951 78.6516 95.4544 83.2926 94.2049C87.9336 92.9554 87.9335 80.8769 84.1398 76.2953Z" fill="#D57C3C"/>
<path d="M70.0559 129.659C68.2047 125.842 59.4161 110.557 50.9397 96.0741C46.7052 88.8389 42.5542 81.8132 39.3956 76.5349C37.8162 73.8955 36.4857 71.6944 35.5173 70.1229C35.0329 69.3368 34.6405 68.7106 34.3535 68.2665C34.2097 68.0441 34.0944 67.8706 34.0082 67.7468C33.947 67.6588 33.9115 67.6124 33.8963 67.5925C33.8867 67.5799 33.8853 67.5781 33.8907 67.5831C33.0381 66.7891 30.67 65.9194 26.9602 68.3287C25.0656 69.5591 24.408 70.405 24.161 71.0791C24.037 71.4175 24.0041 71.7445 23.9996 72.1156C23.9983 72.2288 24.0001 72.3562 24.002 72.4922C24.0056 72.7525 24.0097 73.0447 23.9931 73.331C24.002 73.3571 24.0176 73.3972 24.043 73.4536C24.1012 73.5829 24.1945 73.7628 24.3253 73.9951C24.5858 74.4579 24.9761 75.0946 25.4823 75.8858C26.4936 77.4664 27.9517 79.6393 29.7203 82.2209C33.2567 87.3829 38.0243 94.164 42.9175 101.078C46.0474 105.5 49.2303 109.979 52.1748 114.122C58.4289 122.922 63.6074 130.208 64.9188 132.228C65.8452 133.654 66.879 134.621 67.8309 135.164C68.7936 135.714 69.6145 135.802 70.1683 135.599C70.6839 135.41 71.1036 134.917 71.1805 133.95C71.2589 132.965 70.967 131.537 70.0559 129.659ZM23.985 73.3037C23.9849 73.3036 23.9853 73.3055 23.9863 73.3094C23.9856 73.3057 23.9851 73.3038 23.985 73.3037Z" fill="#8D6F5D" stroke="#373737"/>
<path d="M30.7501 55.0175C29.7128 59.898 32.3299 61.9846 31.5307 63.345C30.7315 64.7054 24.1793 64.333 22.7576 68.6218C21.336 72.9106 14.5501 65.4171 12.052 61.5704C9.55392 57.7238 9.35234 52.1219 9.58689 48.989C9.82143 45.8562 13.1291 31.1231 14.8891 31.2422C16.6491 31.3613 15.8618 39.8656 18.8327 45.088C21.8036 50.3103 31.7874 50.1369 30.7501 55.0175Z" fill="#5893F2" stroke="#373737"/>
<path d="M88.6154 62.9863C87.7256 59.3755 78.58 67.1616 75.5854 63.644C74.9074 62.8476 76.2122 58.8047 73.9978 58.9286C66.4314 59.3519 51.3293 68.3049 41.0831 72.1468C27.8381 77.1131 19.3959 84.2998 20.5823 89.1141C21.7687 93.9284 77.8781 97.1233 87.4078 94.3491C96.9374 91.5749 89.5053 66.597 88.6154 62.9863Z" fill="#FFE482" stroke="#373737"/>
<path d="M92.9941 45.7432C92.7329 44.5563 93.5599 43.4075 94.7696 43.2909C97.8312 42.9958 103.256 42.5183 106.298 42.5183C109.324 42.5183 114.431 42.9909 117.328 43.2863C118.487 43.4045 119.27 44.5153 119.004 45.6496V45.6496C118.785 46.5818 117.923 47.2172 116.967 47.1573C114.619 47.01 110.175 46.7683 106.298 46.7683C102.432 46.7683 97.7194 47.1288 95.1926 47.35C94.1606 47.4403 93.2168 46.7548 92.9941 45.7432V45.7432Z" fill="#3D3D3D"/>
<path d="M50.9941 45.7432C50.7329 44.5563 51.5599 43.4075 52.7696 43.2909C55.8312 42.9958 61.2558 42.5183 64.2979 42.5183C67.3242 42.5183 72.431 42.9909 75.3275 43.2863C76.4867 43.4045 77.2703 44.5153 77.004 45.6496V45.6496C76.7851 46.5818 75.923 47.2172 74.9673 47.1573C72.6186 47.01 68.1745 46.7683 64.2979 46.7683C60.4318 46.7683 55.7194 47.1288 53.1926 47.35C52.1606 47.4403 51.2168 46.7548 50.9941 45.7432V45.7432Z" fill="#3D3D3D"/>
<rect x="97.5044" y="43.5183" width="7" height="18" rx="3.5" fill="#3D3D3D"/>
<rect x="55.5044" y="43.5183" width="7" height="18" rx="3.5" fill="#3D3D3D"/>
<path d="M104.504 48.5183L104.504 53.4633L103.038 53.4484C101.706 53.4349 100.612 52.3618 100.574 51.0304V51.0304C100.536 49.6771 101.601 48.5638 102.955 48.5426L104.504 48.5183Z" fill="#F3F3F3"/>
<path d="M62.5044 48.5183L62.5044 53.4633L61.0382 53.4484C59.7059 53.4349 58.6125 52.3618 58.5745 51.0304V51.0304C58.5358 49.6771 59.6008 48.5638 60.9545 48.5426L62.5044 48.5183Z" fill="#F3F3F3"/>
<rect x="101.889" y="71" width="2.52488" height="15.7805" rx="1.26244" transform="rotate(21.9142 101.889 71)" fill="#FF9ACE"/>
<rect x="107.889" y="72" width="2.52488" height="15.7805" rx="1.26244" transform="rotate(21.9142 107.889 72)" fill="#FF9ACE"/>
<rect x="113.889" y="73" width="2.52488" height="15.7805" rx="1.26244" transform="rotate(21.9142 113.889 73)" fill="#FF9ACE"/>
</g>
<defs>
<clipPath id="clip0_110_1482">
<rect width="141" height="141" fill="white"/>
</clipPath>
</defs>
</svg>
